<?xml version="1.0" standalone="no"?>
<!DOCTYPE svg PUBLIC "-//W3C//DTD SVG 20010904//EN"
 "http://www.w3.org/TR/2001/REC-SVG-20010904/DTD/svg10.dtd">
<svg version="1.0" xmlns="http://www.w3.org/2000/svg"
 width="7000.000000pt" height="5000.000000pt" viewBox="0 0 7000.000000 5000.000000"
 preserveAspectRatio="xMidYMid meet">

<g transform="translate(0.000000,5000.000000) scale(0.100000,-0.100000)"
fill="#000000" stroke="none">
<path d="M28160 43584 c-194 -38 -371 -132 -535 -286 -309 -289 -592 -850
-635 -1258 -24 -226 -79 -391 -182 -543 -82 -121 -210 -239 -483 -444 -391
-294 -588 -492 -745 -749 -213 -349 -272 -726 -170 -1094 40 -144 224 -472
249 -444 5 5 16 34 26 64 44 138 168 494 190 545 7 17 28 68 46 115 109 284
279 636 378 787 149 227 386 371 776 473 161 42 319 70 470 84 62 6 90 35 146
153 65 135 158 545 137 602 -31 84 -29 211 8 444 l6 37 128 0 c167 0 261 14
390 56 181 60 455 210 692 379 l78 55 30 -42 c77 -105 111 -217 131 -428 19
-208 -1 -369 -72 -562 -108 -294 -220 -473 -327 -520 -40 -18 -46 -18 -133 -2
-49 9 -92 14 -95 11 -8 -8 -53 -260 -48 -268 2 -4 23 -10 47 -14 153 -24 482
-128 632 -200 181 -87 323 -199 376 -299 13 -25 27 -46 30 -46 14 0 91 183
113 270 44 170 51 240 51 515 -1 190 -6 298 -19 400 -46 361 -130 727 -247
1078 -141 425 -333 810 -473 950 -54 54 -175 116 -276 143 -81 21 -622 51
-690 38z"/>
<path d="M30061 38952 c-5 -10 -42 -98 -81 -197 -39 -99 -78 -193 -85 -210 -7
-16 -46 -111 -85 -210 -40 -99 -110 -272 -156 -385 -45 -113 -151 -374 -234
-580 -145 -360 -202 -498 -239 -585 -10 -22 -31 -75 -47 -117 l-29 -78 -532 0
-533 0 0 -48 0 -49 1097 -6 c1392 -9 3009 -9 3145 -1 l105 7 491 1221 c270
672 494 1229 498 1239 6 16 -77 17 -1650 17 -1575 0 -1656 -1 -1665 -18z
m1438 -1077 c27 -13 61 -68 61 -97 0 -37 -25 -94 -58 -130 -115 -127 -292 -93
-279 54 11 126 172 227 276 173z"/>
<path d="M36264 30778 c-10 -16 -186 -99 -272 -128 -208 -69 -450 -77 -802
-25 -96 14 -216 28 -267 32 l-92 6 -7 -38 c-9 -48 2 -167 20 -208 53 -126 222
-145 566 -65 133 31 139 32 410 33 202 2 301 6 375 19 222 37 362 93 456 185
109 105 78 136 -176 171 -202 28 -205 28 -211 18z"/>
<path d="M29899 30151 c-103 -80 -131 -118 -137 -186 -4 -45 0 -65 22 -108 37
-76 138 -190 263 -299 189 -163 234 -210 314 -330 168 -246 391 -463 569 -553
111 -56 210 -77 278 -59 49 13 19 102 -105 309 l-65 110 -86 40 c-165 77 -340
207 -447 334 -80 93 -189 261 -285 436 -146 266 -200 353 -226 358 -16 3 -43
-12 -95 -52z"/>
<path d="M49547 25318 c4 -18 119 -645 257 -1394 138 -749 255 -1362 260
-1364 6 -1 142 239 305 534 162 295 295 535 296 533 8 -11 660 -874 666 -881
6 -7 209 137 209 148 0 2 -153 206 -340 452 -281 371 -337 450 -322 456 9 4
283 69 607 144 325 75 599 140 610 144 15 6 -5 19 -95 62 -63 31 -639 312
-1279 627 -640 314 -1167 571 -1172 571 -5 0 -6 -15 -2 -32z"/>
<path d="M15330 24114 c-376 -45 -718 -159 -970 -324 -119 -78 -256 -215 -296
-296 -25 -52 -28 -68 -27 -149 4 -222 134 -601 317 -921 228 -398 488 -635
701 -637 106 -2 209 66 297 197 97 142 137 274 146 483 7 149 8 154 35 180 25
25 34 28 90 26 34 -1 102 -11 150 -22 97 -23 108 -21 150 29 63 75 147 415
173 706 6 63 14 92 45 149 53 99 72 174 67 256 -11 148 -120 245 -339 300 -70
17 -120 22 -294 24 -115 2 -226 1 -245 -1z"/>
<path d="M23570 23563 c-229 -21 -419 -53 -610 -99 -1529 -374 -2674 -1657
-2874 -3222 -21 -160 -21 -159 9 -166 28 -7 55 -52 55 -90 0 -14 -13 -67 -29
-118 -56 -179 -67 -299 -45 -508 66 -652 295 -1269 667 -1803 55 -78 167 -224
213 -278 12 -13 -55 -80 -555 -550 -518 -487 -569 -537 -575 -572 -3 -21 -24
-74 -47 -118 -22 -44 -37 -84 -34 -89 3 -5 67 -7 153 -3 146 6 266 -1 290 -16
8 -4 19 -25 26 -46 l13 -37 529 497 c291 274 541 509 555 522 l26 24 77 -65
c544 -463 1259 -777 1978 -870 870 -113 1759 82 2516 554 416 258 805 625
1089 1026 368 519 600 1123 678 1764 23 183 31 620 16 789 -20 215 -87 562
-148 766 -77 259 -246 637 -402 896 -135 226 -339 484 -547 694 -627 631
-1438 1018 -2322 1109 -137 14 -588 20 -702 9z m755 -317 c657 -91 1244 -340
1750 -742 136 -108 445 -416 546 -544 178 -225 297 -413 419 -661 450 -917
477 -1992 75 -2933 -182 -427 -460 -827 -801 -1155 -553 -532 -1242 -857
-2029 -957 -191 -25 -623 -25 -815 -1 -937 118 -1766 579 -2347 1305 -398 499
-647 1087 -740 1752 -25 182 -25 691 0 880 55 407 161 756 337 1115 346 704
903 1262 1605 1605 405 199 813 311 1275 354 113 10 610 -2 725 -18z"/>
<path d="M54930 18623 c-70 -12 -183 -48 -255 -83 -63 -30 -101 -41 -175 -50
-214 -25 -402 -100 -517 -205 -242 -219 -480 -883 -565 -1575 -17 -141 -17
-562 0 -660 17 -96 40 -186 58 -228 l14 -33 60 49 c119 96 276 154 505 186
160 23 317 36 424 36 l94 0 -5 109 c-3 60 -8 114 -12 119 -4 7 -17 7 -38 1
-118 -33 -280 150 -439 501 -67 146 -133 319 -143 373 -15 83 -9 219 14 279
29 79 209 325 230 316 4 -2 41 -43 82 -93 211 -255 469 -410 743 -446 103 -13
233 -51 264 -77 38 -31 50 -209 20 -289 -11 -29 6 -176 37 -333 28 -143 94
-346 151 -470 l40 -85 99 -24 c118 -28 288 -79 387 -117 174 -65 365 -232 502
-439 29 -44 103 -181 164 -303 l112 -224 18 24 c125 163 227 361 277 543 35
125 44 335 20 455 -56 275 -221 506 -531 743 -227 174 -360 322 -449 501 -60
121 -96 235 -141 445 -41 195 -77 306 -140 431 -170 337 -431 572 -689 619
-58 11 -165 13 -216 4z"/>
<path d="M18718 15143 c-249 -234 -453 -432 -453 -439 0 -15 336 -375 347
-372 4 2 249 230 544 508 295 278 561 529 592 558 l57 53 -42 -6 c-96 -15
-405 45 -511 99 -28 14 -58 26 -67 26 -8 0 -218 -192 -467 -427z"/>
<path d="M53385 13625 c-14 -13 -25 -32 -25 -41 0 -16 216 -791 276 -990 19
-66 31 -88 63 -117 21 -19 54 -39 72 -45 54 -18 680 -104 705 -98 12 3 30 13
38 22 16 16 22 80 8 100 -4 7 -62 16 -145 22 -158 11 -180 21 -260 114 -93
109 -144 220 -116 254 16 20 86 17 193 -6 89 -20 162 -24 202 -12 20 7 19 16
-66 312 -47 168 -92 315 -98 327 -15 28 -70 70 -108 83 -33 11 -641 100 -686
100 -17 0 -39 -10 -53 -25z"/>
<path d="M49800 12479 c-530 -25 -966 -81 -1202 -155 -108 -34 -231 -98 -265
-138 -64 -76 -106 -213 -135 -441 -17 -133 -17 -984 0 -1230 56 -814 139
-1600 268 -2549 l35 -259 -20 -76 c-11 -42 -34 -128 -51 -191 -69 -257 -92
-342 -130 -485 -22 -82 -50 -184 -61 -225 -19 -69 -45 -163 -53 -200 -2 -8
-11 -42 -20 -75 -9 -33 -19 -71 -22 -85 -3 -14 -14 -54 -25 -89 -10 -35 -21
-76 -24 -91 -3 -15 -13 -56 -24 -91 -10 -35 -22 -77 -25 -94 -18 -86 -19 -80
21 -97 165 -73 399 -98 549 -60 126 32 165 54 201 115 74 126 374 623 444 738
l78 126 84 22 c81 21 185 66 218 93 8 7 23 25 33 40 16 24 16 40 5 197 l-12
172 35 52 c20 29 81 121 137 206 178 268 269 397 386 546 100 127 129 172 184
282 82 164 173 405 217 575 8 34 22 80 29 103 8 23 17 63 19 89 3 26 15 74 26
105 28 74 63 229 154 687 41 209 81 398 88 420 12 36 16 39 52 42 22 2 117 -4
210 -12 94 -9 261 -23 370 -31 l199 -15 96 68 c301 214 546 362 881 530 195
97 224 111 375 172 44 18 94 39 112 46 17 8 38 14 47 14 36 0 10 21 -106 85
-158 87 -434 269 -568 376 -214 169 -401 372 -471 511 -38 75 -63 171 -56 220
l5 38 -46 1 c-26 0 -128 4 -227 8 l-180 9 -175 -85 c-153 -73 -183 -92 -240
-147 -67 -66 -103 -89 -156 -100 -52 -11 -328 -24 -337 -16 -30 27 65 89 138
90 61 1 24 15 -86 34 -167 28 -263 31 -373 11 -104 -19 -189 -17 -261 7 -22 7
-40 19 -40 27 0 19 101 73 255 138 l125 53 -255 -2 c-140 0 -334 -5 -430 -9z"/>
<path d="M15964 5242 c-169 -50 -244 -62 -389 -62 -122 0 -302 18 -359 36 -18
6 -18 2 -12 -67 23 -246 76 -487 126 -576 l30 -53 -188 0 -189 0 -16 59 c-33
118 -126 197 -266 226 -120 25 -297 83 -400 131 -117 55 -265 152 -352 232
-64 60 -66 61 -105 51 -80 -18 -268 -39 -357 -39 -126 0 -335 34 -468 75 -12
4 -15 -1 -13 -22 40 -375 77 -558 136 -662 l30 -54 -3807 4 -3807 4 -20 -25
c-16 -20 -19 -35 -15 -74 3 -30 11 -54 21 -61 22 -17 7651 -23 35899 -31
21569 -6 22498 -6 22517 11 15 14 20 31 20 69 0 56 -5 68 -36 84 -19 10
-17616 19 -40400 21 l-6371 1 -16 59 c-33 118 -126 197 -266 226 -306 64 -591
206 -772 385 l-77 75 -78 -23z"/>
</g>
</svg>
